<?xml version="1.0" standalone="no"?>
<!DOCTYPE svg PUBLIC "-//W3C//DTD SVG 20010904//EN"
 "http://www.w3.org/TR/2001/REC-SVG-20010904/DTD/svg10.dtd">
<svg version="1.0" xmlns="http://www.w3.org/2000/svg"
 width="233.000000pt" height="233.000000pt" viewBox="0 0 233.000000 233.000000"
 preserveAspectRatio="xMidYMid meet">

<g transform="translate(0.000000,233.000000) scale(0.100000,-0.100000)"
fill="#000000" stroke="none">
<path d="M634 2305 c-130 -28 -231 -100 -293 -208 -32 -56 -62 -157 -60 -203
1 -17 9 3 20 48 49 205 167 319 358 348 153 24 298 -25 403 -138 122 -131 151
-276 107 -540 -11 -70 -19 -141 -16 -159 3 -18 2 -33 -3 -33 -4 0 -31 -15 -59
-34 -49 -33 -51 -34 -61 -15 -15 27 -39 24 -51 -7 -13 -36 -4 -42 13 -9 l14
26 13 -24 13 -24 56 33 c63 39 82 42 82 15 0 -10 13 -45 30 -77 16 -32 28 -60
26 -61 -2 -2 -30 -10 -62 -19 -71 -18 -144 -58 -241 -130 -40 -30 -74 -50 -76
-46 -2 4 -10 24 -17 45 l-12 38 -44 -41 c-27 -25 -53 -40 -69 -40 -58 0 -188
165 -242 304 -15 39 -41 91 -58 116 -49 70 -49 68 -10 84 19 8 35 20 35 25 0
14 -2 14 -36 -4 -17 -9 -32 -11 -38 -5 -5 5 -19 46 -32 92 -12 46 -23 74 -23
63 -3 -62 52 -208 100 -268 27 -33 32 -49 39 -128 10 -106 32 -152 74 -157 17
-2 39 -16 54 -34 99 -118 144 -132 213 -67 17 16 33 28 34 27 1 -2 7 -18 14
-37 8 -26 8 -37 -2 -49 -6 -9 21 9 60 39 103 78 248 148 331 160 126 19 214
-2 404 -96 114 -57 182 -118 264 -241 66 -99 98 -170 132 -294 25 -90 26 -107
27 -337 0 -181 3 -243 12 -243 19 0 26 80 21 276 -2 101 -1 184 3 184 20 0 99
-218 129 -358 12 -53 23 -98 26 -101 19 -19 -28 197 -65 297 -16 46 -43 107
-59 137 -17 30 -26 58 -21 61 18 11 8 52 -32 135 -77 160 -188 320 -283 407
-84 78 -333 186 -451 196 -50 4 -74 11 -84 23 -21 29 -49 95 -65 157 -14 54
-14 65 4 145 60 270 42 414 -70 563 -110 145 -304 220 -476 183z m-114 -1112
c0 -2 -9 -3 -20 -3 -15 0 -23 12 -35 52 -24 82 -17 88 20 18 19 -35 35 -65 35
-67z m1534 -579 c40 -79 43 -96 22 -114 -12 -9 -17 -4 -25 32 -6 24 -20 72
-31 107 -23 77 -14 70 34 -25z"/>
<path d="M315 1872 c-16 -9 -32 -18 -34 -19 -2 -2 -2 -6 1 -9 3 -3 23 4 44 15
37 20 39 20 59 2 11 -10 35 -26 52 -37 24 -13 37 -31 49 -69 22 -65 72 -165
83 -165 5 0 28 -23 51 -52 22 -28 50 -58 62 -66 19 -14 20 -13 13 9 -4 13 -11
50 -15 84 -7 54 -5 64 19 103 42 69 92 67 126 -5 18 -37 18 -40 -3 -123 -12
-48 -19 -97 -16 -113 11 -48 22 -39 20 17 0 30 2 58 6 62 12 11 45 -35 90
-126 23 -46 43 -79 45 -73 7 19 -62 156 -95 191 -26 28 -30 37 -22 58 22 56
10 105 -38 157 -32 34 -56 34 -104 1 -46 -32 -53 -54 -45 -146 l6 -70 -34 46
c-19 24 -43 47 -52 50 -16 5 -64 103 -94 193 -8 24 -25 40 -60 59 -27 15 -49
31 -49 36 0 13 -33 9 -65 -10z"/>
<path d="M291 1774 c0 -11 3 -14 6 -6 3 7 2 16 -1 19 -3 4 -6 -2 -5 -13z"/>
<path d="M726 1664 c-26 -25 -20 -60 15 -85 25 -18 30 -27 27 -51 -3 -17 0
-27 6 -25 6 2 12 17 14 34 2 23 -3 35 -20 47 -19 14 -21 19 -10 36 18 30 14
38 -7 13 -10 -12 -21 -19 -24 -16 -7 7 11 45 27 55 8 6 8 8 -1 8 -6 0 -19 -7
-27 -16z"/>
<path d="M1215 1175 c-67 -15 -131 -40 -140 -54 -3 -6 14 -2 37 8 24 11 68 24
98 30 30 6 75 15 100 20 l45 9 -40 0 c-22 0 -67 -6 -100 -13z"/>
<path d="M1283 1149 c-18 -5 -33 -12 -33 -14 0 -6 62 6 80 16 13 7 13 8 0 8
-8 -1 -30 -5 -47 -10z"/>
<path d="M746 929 c-54 -58 -95 -119 -79 -119 5 0 26 26 48 57 22 31 53 72 69
90 48 56 21 37 -38 -28z"/>
<path d="M618 783 c-38 -41 -48 -66 -69 -167 -24 -111 -37 -379 -20 -416 10
-21 11 -14 7 39 -6 85 9 279 29 377 17 78 43 143 73 177 25 28 8 19 -20 -10z"/>
<path d="M940 446 c0 -2 13 -35 29 -73 51 -124 104 -274 98 -279 -8 -8 -67 25
-67 37 0 7 -6 6 -17 -2 -15 -13 -16 -12 -11 9 4 12 2 20 -3 16 -5 -3 -9 0 -9
6 0 6 -5 8 -11 4 -8 -4 -7 -9 2 -15 18 -11 6 -21 -15 -13 -11 4 -15 13 -11 28
5 20 4 20 -6 -1 -13 -24 -29 -31 -29 -12 0 5 -4 8 -9 4 -6 -3 -50 -8 -98 -10
-119 -6 -214 -14 -234 -21 -9 -2 -31 8 -49 23 -29 24 -32 25 -21 6 6 -12 34
-34 62 -48 55 -27 85 -33 55 -10 -19 15 -19 15 2 15 21 0 22 -1 35 -90 3 -14
5 0 6 32 l1 56 63 4 c69 3 235 -7 267 -17 16 -5 20 -15 21 -53 1 -26 4 -36 6
-22 3 19 16 31 46 45 51 24 51 35 5 169 -25 74 -29 98 -23 142 3 30 3 59 -2
66 -5 8 -10 -11 -13 -47 l-5 -60 -27 58 c-23 48 -38 70 -38 53z m80 -366 c0
-5 -4 -10 -10 -10 -5 0 -10 5 -10 10 0 6 5 10 10 10 6 0 10 -4 10 -10z"/>
<path d="M885 180 c4 -6 11 -8 16 -5 14 9 11 15 -7 15 -8 0 -12 -5 -9 -10z"/>
<path d="M1026 141 c-3 -5 1 -14 8 -20 12 -10 13 -8 9 8 -6 23 -9 25 -17 12z"/>
</g>
</svg>
